<mxfile host="app.diagrams.net" agent="Mozilla/5.0 (Windows NT 10.0; Win64; x64) AppleWebKit/537.36 (KHTML, like Gecko) Chrome/132.0.0.0 Safari/537.36 OPR/117.0.0.0" version="26.2.8">
  <diagram name="Página-1" id="c7U5hGVl0tTPbnGq8Zsi">
    <mxGraphModel dx="833" dy="1622" grid="1" gridSize="10" guides="1" tooltips="1" connect="1" arrows="1" fold="1" page="1" pageScale="1" pageWidth="827" pageHeight="1169" math="0" shadow="0">
      <root>
        <mxCell id="0" />
        <mxCell id="1" parent="0" />
        <mxCell id="GzDzBvZkYffjlqlWirAq-1" value="" style="edgeStyle=orthogonalEdgeStyle;rounded=0;orthogonalLoop=1;jettySize=auto;html=1;" edge="1" parent="1" source="GzDzBvZkYffjlqlWirAq-2" target="GzDzBvZkYffjlqlWirAq-3">
          <mxGeometry relative="1" as="geometry" />
        </mxCell>
        <mxCell id="GzDzBvZkYffjlqlWirAq-2" value="Início" style="rounded=1;whiteSpace=wrap;html=1;fontSize=12;glass=0;strokeWidth=1;shadow=0;" vertex="1" parent="1">
          <mxGeometry x="92.5" y="-1140" width="60" height="40" as="geometry" />
        </mxCell>
        <mxCell id="GzDzBvZkYffjlqlWirAq-8" value="" style="edgeStyle=orthogonalEdgeStyle;rounded=0;orthogonalLoop=1;jettySize=auto;html=1;" edge="1" parent="1" source="GzDzBvZkYffjlqlWirAq-3" target="GzDzBvZkYffjlqlWirAq-7">
          <mxGeometry relative="1" as="geometry" />
        </mxCell>
        <mxCell id="GzDzBvZkYffjlqlWirAq-3" value="&lt;div&gt;&lt;br&gt;&lt;/div&gt;&lt;div&gt;&lt;br&gt;&lt;/div&gt;Ler idade" style="shape=manualInput;whiteSpace=wrap;html=1;" vertex="1" parent="1">
          <mxGeometry x="77.5" y="-1010" width="90" height="60" as="geometry" />
        </mxCell>
        <mxCell id="GzDzBvZkYffjlqlWirAq-10" value="" style="edgeStyle=orthogonalEdgeStyle;rounded=0;orthogonalLoop=1;jettySize=auto;html=1;" edge="1" parent="1" source="GzDzBvZkYffjlqlWirAq-7" target="GzDzBvZkYffjlqlWirAq-9">
          <mxGeometry relative="1" as="geometry" />
        </mxCell>
        <mxCell id="GzDzBvZkYffjlqlWirAq-7" value="&lt;div&gt;&lt;br&gt;&lt;/div&gt;&lt;div&gt;&lt;br&gt;&lt;/div&gt;Ler genero" style="shape=manualInput;whiteSpace=wrap;html=1;" vertex="1" parent="1">
          <mxGeometry x="247.5" y="-1010" width="90" height="60" as="geometry" />
        </mxCell>
        <mxCell id="GzDzBvZkYffjlqlWirAq-15" value="" style="edgeStyle=orthogonalEdgeStyle;rounded=0;orthogonalLoop=1;jettySize=auto;html=1;" edge="1" parent="1" source="GzDzBvZkYffjlqlWirAq-9" target="GzDzBvZkYffjlqlWirAq-14">
          <mxGeometry relative="1" as="geometry" />
        </mxCell>
        <mxCell id="GzDzBvZkYffjlqlWirAq-16" value="Verdadeiro" style="edgeLabel;html=1;align=center;verticalAlign=middle;resizable=0;points=[];" vertex="1" connectable="0" parent="GzDzBvZkYffjlqlWirAq-15">
          <mxGeometry x="-0.0625" y="1" relative="1" as="geometry">
            <mxPoint as="offset" />
          </mxGeometry>
        </mxCell>
        <mxCell id="GzDzBvZkYffjlqlWirAq-25" value="" style="edgeStyle=orthogonalEdgeStyle;rounded=0;orthogonalLoop=1;jettySize=auto;html=1;" edge="1" parent="1" source="GzDzBvZkYffjlqlWirAq-9" target="GzDzBvZkYffjlqlWirAq-24">
          <mxGeometry relative="1" as="geometry" />
        </mxCell>
        <mxCell id="GzDzBvZkYffjlqlWirAq-26" value="Falso" style="edgeLabel;html=1;align=center;verticalAlign=middle;resizable=0;points=[];" vertex="1" connectable="0" parent="GzDzBvZkYffjlqlWirAq-25">
          <mxGeometry x="-0.325" y="-1" relative="1" as="geometry">
            <mxPoint as="offset" />
          </mxGeometry>
        </mxCell>
        <mxCell id="GzDzBvZkYffjlqlWirAq-9" value="genero = masculino" style="rhombus;whiteSpace=wrap;html=1;" vertex="1" parent="1">
          <mxGeometry x="422.5" y="-1020" width="80" height="80" as="geometry" />
        </mxCell>
        <mxCell id="GzDzBvZkYffjlqlWirAq-40" style="edgeStyle=orthogonalEdgeStyle;rounded=0;orthogonalLoop=1;jettySize=auto;html=1;entryX=0.5;entryY=0;entryDx=0;entryDy=0;" edge="1" parent="1" source="GzDzBvZkYffjlqlWirAq-11" target="GzDzBvZkYffjlqlWirAq-36">
          <mxGeometry relative="1" as="geometry" />
        </mxCell>
        <mxCell id="GzDzBvZkYffjlqlWirAq-11" value="&quot;Pode se aposentar&quot;" style="shape=display;whiteSpace=wrap;html=1;" vertex="1" parent="1">
          <mxGeometry x="747" y="-1000" width="80" height="40" as="geometry" />
        </mxCell>
        <mxCell id="GzDzBvZkYffjlqlWirAq-17" value="" style="edgeStyle=orthogonalEdgeStyle;rounded=0;orthogonalLoop=1;jettySize=auto;html=1;" edge="1" parent="1" source="GzDzBvZkYffjlqlWirAq-14" target="GzDzBvZkYffjlqlWirAq-11">
          <mxGeometry relative="1" as="geometry" />
        </mxCell>
        <mxCell id="GzDzBvZkYffjlqlWirAq-18" value="Verdadeiro" style="edgeLabel;html=1;align=center;verticalAlign=middle;resizable=0;points=[];" vertex="1" connectable="0" parent="GzDzBvZkYffjlqlWirAq-17">
          <mxGeometry x="-0.2071" y="-1" relative="1" as="geometry">
            <mxPoint as="offset" />
          </mxGeometry>
        </mxCell>
        <mxCell id="GzDzBvZkYffjlqlWirAq-20" value="" style="edgeStyle=orthogonalEdgeStyle;rounded=0;orthogonalLoop=1;jettySize=auto;html=1;" edge="1" parent="1" source="GzDzBvZkYffjlqlWirAq-14" target="GzDzBvZkYffjlqlWirAq-19">
          <mxGeometry relative="1" as="geometry" />
        </mxCell>
        <mxCell id="GzDzBvZkYffjlqlWirAq-23" value="Falso" style="edgeLabel;html=1;align=center;verticalAlign=middle;resizable=0;points=[];" vertex="1" connectable="0" parent="GzDzBvZkYffjlqlWirAq-20">
          <mxGeometry x="-0.4667" y="-2" relative="1" as="geometry">
            <mxPoint as="offset" />
          </mxGeometry>
        </mxCell>
        <mxCell id="GzDzBvZkYffjlqlWirAq-14" value="idade &amp;gt; 65" style="rhombus;whiteSpace=wrap;html=1;" vertex="1" parent="1">
          <mxGeometry x="582.5" y="-1020" width="80" height="80" as="geometry" />
        </mxCell>
        <mxCell id="GzDzBvZkYffjlqlWirAq-39" style="edgeStyle=orthogonalEdgeStyle;rounded=0;orthogonalLoop=1;jettySize=auto;html=1;entryX=0;entryY=0;entryDx=0;entryDy=0;" edge="1" parent="1" source="GzDzBvZkYffjlqlWirAq-19" target="GzDzBvZkYffjlqlWirAq-36">
          <mxGeometry relative="1" as="geometry" />
        </mxCell>
        <mxCell id="GzDzBvZkYffjlqlWirAq-19" value="&quot;Não pode se aposentar&quot;" style="shape=display;whiteSpace=wrap;html=1;" vertex="1" parent="1">
          <mxGeometry x="575" y="-880" width="95" height="40" as="geometry" />
        </mxCell>
        <mxCell id="GzDzBvZkYffjlqlWirAq-28" value="" style="edgeStyle=orthogonalEdgeStyle;rounded=0;orthogonalLoop=1;jettySize=auto;html=1;" edge="1" parent="1" source="GzDzBvZkYffjlqlWirAq-24" target="GzDzBvZkYffjlqlWirAq-27">
          <mxGeometry relative="1" as="geometry" />
        </mxCell>
        <mxCell id="GzDzBvZkYffjlqlWirAq-24" value="genero = feminino" style="rhombus;whiteSpace=wrap;html=1;" vertex="1" parent="1">
          <mxGeometry x="422.5" y="-800" width="80" height="80" as="geometry" />
        </mxCell>
        <mxCell id="GzDzBvZkYffjlqlWirAq-27" value="idade &amp;gt; 60" style="rhombus;whiteSpace=wrap;html=1;" vertex="1" parent="1">
          <mxGeometry x="582.5" y="-800" width="80" height="80" as="geometry" />
        </mxCell>
        <mxCell id="GzDzBvZkYffjlqlWirAq-38" style="edgeStyle=orthogonalEdgeStyle;rounded=0;orthogonalLoop=1;jettySize=auto;html=1;entryX=0;entryY=0.5;entryDx=0;entryDy=0;" edge="1" parent="1" source="GzDzBvZkYffjlqlWirAq-29" target="GzDzBvZkYffjlqlWirAq-36">
          <mxGeometry relative="1" as="geometry" />
        </mxCell>
        <mxCell id="GzDzBvZkYffjlqlWirAq-29" value="&quot;Pode se aposentar&quot;" style="shape=display;whiteSpace=wrap;html=1;" vertex="1" parent="1">
          <mxGeometry x="747" y="-780" width="80" height="40" as="geometry" />
        </mxCell>
        <mxCell id="GzDzBvZkYffjlqlWirAq-30" value="" style="edgeStyle=orthogonalEdgeStyle;rounded=0;orthogonalLoop=1;jettySize=auto;html=1;" edge="1" parent="1" target="GzDzBvZkYffjlqlWirAq-29">
          <mxGeometry relative="1" as="geometry">
            <mxPoint x="662.5" y="-760" as="sourcePoint" />
          </mxGeometry>
        </mxCell>
        <mxCell id="GzDzBvZkYffjlqlWirAq-31" value="Verdadeiro" style="edgeLabel;html=1;align=center;verticalAlign=middle;resizable=0;points=[];" vertex="1" connectable="0" parent="GzDzBvZkYffjlqlWirAq-30">
          <mxGeometry x="-0.2071" y="-1" relative="1" as="geometry">
            <mxPoint as="offset" />
          </mxGeometry>
        </mxCell>
        <mxCell id="GzDzBvZkYffjlqlWirAq-32" value="" style="edgeStyle=orthogonalEdgeStyle;rounded=0;orthogonalLoop=1;jettySize=auto;html=1;" edge="1" parent="1" target="GzDzBvZkYffjlqlWirAq-35">
          <mxGeometry relative="1" as="geometry">
            <mxPoint x="622.5" y="-720" as="sourcePoint" />
          </mxGeometry>
        </mxCell>
        <mxCell id="GzDzBvZkYffjlqlWirAq-33" value="Falso" style="edgeLabel;html=1;align=center;verticalAlign=middle;resizable=0;points=[];" vertex="1" connectable="0" parent="GzDzBvZkYffjlqlWirAq-32">
          <mxGeometry x="-0.4667" y="-2" relative="1" as="geometry">
            <mxPoint as="offset" />
          </mxGeometry>
        </mxCell>
        <mxCell id="GzDzBvZkYffjlqlWirAq-37" style="edgeStyle=orthogonalEdgeStyle;rounded=0;orthogonalLoop=1;jettySize=auto;html=1;entryX=0.5;entryY=1;entryDx=0;entryDy=0;" edge="1" parent="1" source="GzDzBvZkYffjlqlWirAq-35" target="GzDzBvZkYffjlqlWirAq-36">
          <mxGeometry relative="1" as="geometry" />
        </mxCell>
        <mxCell id="GzDzBvZkYffjlqlWirAq-35" value="&quot;Não pode se aposentar&quot;" style="shape=display;whiteSpace=wrap;html=1;" vertex="1" parent="1">
          <mxGeometry x="575" y="-660" width="95" height="40" as="geometry" />
        </mxCell>
        <mxCell id="GzDzBvZkYffjlqlWirAq-42" value="" style="edgeStyle=orthogonalEdgeStyle;rounded=0;orthogonalLoop=1;jettySize=auto;html=1;" edge="1" parent="1" source="GzDzBvZkYffjlqlWirAq-36" target="GzDzBvZkYffjlqlWirAq-41">
          <mxGeometry relative="1" as="geometry" />
        </mxCell>
        <mxCell id="GzDzBvZkYffjlqlWirAq-36" value="" style="ellipse;whiteSpace=wrap;html=1;aspect=fixed;" vertex="1" parent="1">
          <mxGeometry x="990" y="-840" width="40" height="40" as="geometry" />
        </mxCell>
        <mxCell id="GzDzBvZkYffjlqlWirAq-41" value="Fim" style="rounded=1;whiteSpace=wrap;html=1;fontSize=12;glass=0;strokeWidth=1;shadow=0;" vertex="1" parent="1">
          <mxGeometry x="1100" y="-840" width="60" height="40" as="geometry" />
        </mxCell>
      </root>
    </mxGraphModel>
  </diagram>
</mxfile>
